<svg width="28" height="28" viewBox="0 0 28 28" fill="none" xmlns="http://www.w3.org/2000/svg">
<path d="M14 0C6.28054 0 0 6.28054 0 14C0 21.7195 6.28054 28 14 28C21.7195 28 28 21.7195 28 14C28 6.28054 21.7195 0 14 0ZM14 26.25C7.24489 26.25 1.75003 20.755 1.75003 14C1.75003 7.24489 7.24496 1.75003 14 1.75003C20.755 1.75003 26.25 7.24496 26.25 14C26.25 20.755 20.755 26.25 14 26.25Z" fill="white"/>
<path d="M17.0062 6.40001C17.5188 6.91259 17.5188 7.7436 17.0062 8.25619C16.4936 8.76877 15.6626 8.76877 15.15 8.25619C14.6374 7.7436 14.6374 6.91259 15.15 6.40001C15.6626 5.88743 16.4937 5.88749 17.0062 6.40001Z" fill="white"/>
<path d="M11.3356 19.8036C11.2972 19.7395 11.2203 19.5704 11.3263 19.3739L15.5816 11.4707C15.8978 10.8828 15.8568 10.1778 15.4748 9.63096C15.0937 9.08409 14.4409 8.80293 13.7846 8.89696L9.3917 9.52413L9.63952 11.257L14.0402 10.6418L9.78479 18.5441C9.41735 19.2276 9.4353 20.0343 9.83348 20.7008C10.2317 21.3673 10.9324 21.7655 11.7091 21.7655H16.5156V20.0155H11.7091C11.4861 20.0156 11.3733 19.8669 11.3356 19.8036Z" fill="white"/>
</svg>
