<svg width="58" height="58" viewBox="0 0 58 58" fill="none" xmlns="http://www.w3.org/2000/svg">
<path d="M20.9892 34.0975C20.0819 33.0497 19.6283 31.6186 19.6283 29.804C19.6283 27.9894 20.0819 26.5583 20.9892 25.5105C21.9073 24.4628 23.171 23.939 24.7804 23.939C26.3898 23.939 27.6481 24.4628 28.5554 25.5105C29.4627 26.5475 29.9164 27.9786 29.9164 29.804C29.9164 31.6294 29.4627 33.066 28.5554 34.1137C27.6481 35.1506 26.3898 35.669 24.7804 35.669C23.171 35.669 21.9073 35.1452 20.9892 34.0975ZM22.7066 26.8715C22.1989 27.5628 21.9451 28.5403 21.9451 29.804C21.9451 31.0677 22.1989 32.0506 22.7066 32.7527C23.2143 33.444 23.9055 33.7896 24.7804 33.7896C25.6553 33.7896 26.3412 33.444 26.838 32.7527C27.3457 32.0506 27.5995 31.0677 27.5995 29.804C27.5995 28.5403 27.3457 27.5628 26.838 26.8715C26.3412 26.1694 25.6553 25.8184 24.7804 25.8184C23.9055 25.8184 23.2143 26.1694 22.7066 26.8715ZM34.4277 24.1334H36.3071V35.4746H33.9902V26.6123L31.0091 28.2972V26.0614L34.4277 24.1334Z" fill="#0057FF"/>
<circle cx="28.6848" cy="29.3093" r="27.7742" stroke="#0057FF" stroke-width="1.82126"/>
</svg>
