<svg width="58" height="58" viewBox="0 0 58 58" fill="none" xmlns="http://www.w3.org/2000/svg">
<path d="M20.1386 34.0262C19.2313 32.9785 18.7777 31.5473 18.7777 29.7327C18.7777 27.9181 19.2313 26.487 20.1386 25.4393C21.0567 24.3915 22.3205 23.8677 23.9298 23.8677C25.5392 23.8677 26.7975 24.3915 27.7048 25.4393C28.6121 26.4762 29.0658 27.9073 29.0658 29.7327C29.0658 31.5581 28.6121 32.9947 27.7048 34.0424C26.7975 35.0793 25.5392 35.5977 23.9298 35.5977C22.3205 35.5977 21.0567 35.0739 20.1386 34.0262ZM21.856 26.8002C21.3484 27.4915 21.0945 28.469 21.0945 29.7327C21.0945 30.9964 21.3484 31.9794 21.856 32.6814C22.3637 33.3727 23.0549 33.7183 23.9298 33.7183C24.8047 33.7183 25.4906 33.3727 25.9875 32.6814C26.4951 31.9794 26.7489 30.9964 26.7489 29.7327C26.7489 28.469 26.4951 27.4915 25.9875 26.8002C25.4906 26.0981 24.8047 25.7471 23.9298 25.7471C23.0549 25.7471 22.3637 26.0981 21.856 26.8002ZM33.0748 33.5239H39.3287V35.4033H29.7697V33.6697L34.5654 30.0243C35.073 29.6031 35.4457 29.2845 35.6833 29.0684C35.9317 28.8524 36.1586 28.577 36.3638 28.2422C36.5798 27.9073 36.6878 27.5779 36.6878 27.2538C36.6878 26.7678 36.5096 26.3952 36.1532 26.1359C35.7967 25.8767 35.3269 25.7471 34.7436 25.7471C33.3071 25.7471 32.5024 26.5194 32.3296 28.0639L30.0937 27.9019C30.2125 26.541 30.6878 25.5311 31.5195 24.8722C32.3512 24.2025 33.4205 23.8677 34.7274 23.8677C35.9803 23.8677 37.0065 24.1539 37.8057 24.7264C38.605 25.288 39.0047 26.1089 39.0047 27.189C39.0047 27.8587 38.8048 28.4798 38.4052 29.0522C38.0164 29.6247 37.3305 30.2782 36.3476 31.0126L33.0748 33.5239Z" fill="black"/>
<circle cx="28.6848" cy="29.238" r="27.7742" stroke="black" stroke-width="1.82126"/>
</svg>
