<svg width="58" height="58" viewBox="0 0 58 58" fill="none" xmlns="http://www.w3.org/2000/svg">
<path d="M19.1386 33.6229C18.2313 32.5751 17.7777 31.144 17.7777 29.3294C17.7777 27.5148 18.2313 26.0836 19.1386 25.0359C20.0567 23.9882 21.3205 23.4644 22.9298 23.4644C24.5392 23.4644 25.7975 23.9882 26.7048 25.0359C27.6121 26.0728 28.0658 27.504 28.0658 29.3294C28.0658 31.1548 27.6121 32.5913 26.7048 33.6391C25.7975 34.676 24.5392 35.1944 22.9298 35.1944C21.3205 35.1944 20.0567 34.6706 19.1386 33.6229ZM20.856 26.3969C20.3484 27.0882 20.0945 28.0657 20.0945 29.3294C20.0945 30.5931 20.3484 31.576 20.856 32.2781C21.3637 32.9694 22.0549 33.315 22.9298 33.315C23.8047 33.315 24.4906 32.9694 24.9875 32.2781C25.4951 31.576 25.7489 30.5931 25.7489 29.3294C25.7489 28.0657 25.4951 27.0882 24.9875 26.3969C24.4906 25.6948 23.8047 25.3438 22.9298 25.3438C22.0549 25.3438 21.3637 25.6948 20.856 26.3969ZM34.6995 28.0333C36.0497 28.1089 37.0596 28.4437 37.7292 29.0378C38.3989 29.621 38.7337 30.4257 38.7337 31.4518C38.7337 32.694 38.2639 33.6283 37.3242 34.2547C36.3953 34.8812 35.1964 35.1944 33.7274 35.1944C32.3665 35.1944 31.2485 34.8974 30.3736 34.3033C29.5096 33.7093 29.0073 32.8344 28.8669 31.6786L31.1027 31.5328C31.3187 32.721 32.1936 33.315 33.7274 33.315C34.5483 33.315 35.2018 33.153 35.6878 32.829C36.1739 32.5049 36.4169 32.0459 36.4169 31.4518C36.4169 30.8902 36.1955 30.4473 35.7526 30.1233C35.3098 29.7884 34.6563 29.621 33.7922 29.621C33.2198 29.621 32.5609 29.6912 31.8156 29.8316V28.2601L35.2342 25.5382H29.5312V23.6588H38.3449V25.3438L34.6995 28.0333Z" fill="black"/>
<circle cx="28.6848" cy="29.238" r="27.7742" stroke="black" stroke-width="1.82126"/>
</svg>
