<svg width="58" height="58" viewBox="0 0 58 58" fill="none" xmlns="http://www.w3.org/2000/svg">
<path d="M19.1386 33.6229C18.2313 32.5751 17.7777 31.144 17.7777 29.3294C17.7777 27.5148 18.2313 26.0836 19.1386 25.0359C20.0567 23.9882 21.3205 23.4644 22.9298 23.4644C24.5392 23.4644 25.7975 23.9882 26.7048 25.0359C27.6121 26.0728 28.0658 27.504 28.0658 29.3294C28.0658 31.1548 27.6121 32.5913 26.7048 33.6391C25.7975 34.676 24.5392 35.1944 22.9298 35.1944C21.3205 35.1944 20.0567 34.6706 19.1386 33.6229ZM20.856 26.3969C20.3484 27.0882 20.0945 28.0657 20.0945 29.3294C20.0945 30.5931 20.3484 31.576 20.856 32.2781C21.3637 32.9694 22.0549 33.315 22.9298 33.315C23.8047 33.315 24.4906 32.9694 24.9875 32.2781C25.4951 31.576 25.7489 30.5931 25.7489 29.3294C25.7489 28.0657 25.4951 27.0882 24.9875 26.3969C24.4906 25.6948 23.8047 25.3438 22.9298 25.3438C22.0549 25.3438 21.3637 25.6948 20.856 26.3969ZM39.7058 30.6579V32.5373H37.6968V35H35.38V32.5373H28.8831V30.8038L33.9542 23.6588H37.6968V30.6579H39.7058ZM31.2647 30.6579H35.38V24.8577L31.2647 30.6579Z" fill="black"/>
<circle cx="28.6848" cy="29.3093" r="27.7742" stroke="black" stroke-width="1.82126"/>
</svg>
