<svg width="58" height="58" viewBox="0 0 58 58" fill="none" xmlns="http://www.w3.org/2000/svg">
<path d="M20.1386 34.6229C19.2313 33.5751 18.7777 32.144 18.7777 30.3294C18.7777 28.5148 19.2313 27.0836 20.1386 26.0359C21.0567 24.9882 22.3205 24.4644 23.9298 24.4644C25.5392 24.4644 26.7975 24.9882 27.7048 26.0359C28.6121 27.0728 29.0658 28.504 29.0658 30.3294C29.0658 32.1548 28.6121 33.5913 27.7048 34.6391C26.7975 35.676 25.5392 36.1944 23.9298 36.1944C22.3205 36.1944 21.0567 35.6706 20.1386 34.6229ZM21.856 27.3969C21.3484 28.0882 21.0945 29.0657 21.0945 30.3294C21.0945 31.5931 21.3484 32.576 21.856 33.2781C22.3637 33.9694 23.0549 34.315 23.9298 34.315C24.8047 34.315 25.4906 33.9694 25.9875 33.2781C26.4951 32.576 26.7489 31.5931 26.7489 30.3294C26.7489 29.0657 26.4951 28.0882 25.9875 27.3969C25.4906 26.6948 24.8047 26.3438 23.9298 26.3438C23.0549 26.3438 22.3637 26.6948 21.856 27.3969ZM35.5861 28.3852C36.8498 28.3852 37.8705 28.7254 38.6482 29.4059C39.4367 30.0756 39.831 31.0099 39.831 32.2088C39.831 33.4833 39.3773 34.4662 38.47 35.1575C37.5627 35.8488 36.3692 36.1944 34.8894 36.1944C33.5825 36.1944 32.4754 35.9136 31.5681 35.3519C30.6608 34.7795 30.1153 33.9694 29.9317 32.9217L32.1999 32.7759C32.3404 33.2727 32.6536 33.6561 33.1396 33.9262C33.6365 34.1854 34.209 34.315 34.857 34.315C35.6455 34.315 36.2828 34.1314 36.7688 33.7642C37.2657 33.3861 37.5141 32.8677 37.5141 32.2088C37.5141 31.5283 37.2657 31.0099 36.7688 30.6534C36.2828 30.297 35.6509 30.1188 34.8732 30.1188C33.7067 30.1188 32.848 30.4644 32.2971 31.1557L30.2557 30.9775L30.8066 24.6588H39.0695V26.5382H32.5078L32.2485 29.5841C33.0694 28.7848 34.1819 28.3852 35.5861 28.3852Z" fill="black"/>
<circle cx="28.6848" cy="29.238" r="27.7742" stroke="black" stroke-width="1.82126"/>
</svg>
