<svg width="58" height="58" viewBox="0 0 58 58" fill="none" xmlns="http://www.w3.org/2000/svg">
<path d="M19.1386 34.6229C18.2313 33.5751 17.7777 32.144 17.7777 30.3294C17.7777 28.5148 18.2313 27.0836 19.1386 26.0359C20.0567 24.9882 21.3205 24.4644 22.9298 24.4644C24.5392 24.4644 25.7975 24.9882 26.7048 26.0359C27.6121 27.0728 28.0658 28.504 28.0658 30.3294C28.0658 32.1548 27.6121 33.5913 26.7048 34.6391C25.7975 35.676 24.5392 36.1944 22.9298 36.1944C21.3205 36.1944 20.0567 35.6706 19.1386 34.6229ZM20.856 27.3969C20.3484 28.0882 20.0945 29.0657 20.0945 30.3294C20.0945 31.5931 20.3484 32.576 20.856 33.2781C21.3637 33.9694 22.0549 34.315 22.9298 34.315C23.8047 34.315 24.4906 33.9694 24.9875 33.2781C25.4951 32.576 25.7489 31.5931 25.7489 30.3294C25.7489 29.0657 25.4951 28.0882 24.9875 27.3969C24.4906 26.6948 23.8047 26.3438 22.9298 26.3438C22.0549 26.3438 21.3637 26.6948 20.856 27.3969ZM35.1046 28.5472C36.3683 28.5472 37.4052 28.882 38.2153 29.5517C39.0254 30.2214 39.4304 31.1449 39.4304 32.3222C39.4304 33.5319 38.9876 34.4824 38.1019 35.1737C37.227 35.8542 36.0389 36.1944 34.5375 36.1944C31.0487 36.1944 29.3043 34.2934 29.3043 30.4914C29.3043 28.4932 29.7634 26.9918 30.6815 25.9873C31.6104 24.972 32.9065 24.4644 34.5699 24.4644C35.8336 24.4644 36.8543 24.7452 37.632 25.3069C38.4097 25.8577 38.8526 26.6462 38.9606 27.6723L36.7409 27.8181C36.6761 27.3861 36.4493 27.035 36.0605 26.765C35.6824 26.4842 35.1856 26.3438 34.5699 26.3438C33.6734 26.3438 32.9659 26.6624 32.4475 27.2997C31.929 27.9261 31.6536 28.8496 31.6212 30.0702C32.3233 29.0549 33.4844 28.5472 35.1046 28.5472ZM32.6419 33.7804C33.1063 34.1368 33.7328 34.315 34.5213 34.315C35.3098 34.315 35.9416 34.1368 36.4169 33.7804C36.8921 33.4131 37.1298 32.9271 37.1298 32.3222C37.1298 31.7173 36.8921 31.2367 36.4169 30.8803C35.9416 30.5238 35.3098 30.3456 34.5213 30.3456C33.7328 30.3456 33.1063 30.5238 32.6419 30.8803C32.1774 31.2367 31.9452 31.7173 31.9452 32.3222C31.9452 32.9271 32.1774 33.4131 32.6419 33.7804Z" fill="black"/>
<circle cx="28.6848" cy="29.238" r="27.7742" stroke="black" stroke-width="1.82126"/>
</svg>
