<svg width="132" height="29" viewBox="0 0 132 29" fill="none" xmlns="http://www.w3.org/2000/svg">
<path d="M20.2589 1.40017V5.01569H12.6991V22.3164H8.27685V5.01569H0.717128V1.40017H20.2589ZM36.6452 15.2646V15.7427H22.96C23.3584 18.412 25.0815 19.7467 28.1293 19.7467C30.1014 19.7467 31.4958 19.1092 32.3126 17.8344L36.4062 18.0435C35.9082 19.5176 34.952 20.663 33.5376 21.4798C32.1233 22.2766 30.3205 22.675 28.1293 22.675C25.221 22.675 22.9202 21.9977 21.2269 20.6431C19.5536 19.2686 18.717 17.2168 18.717 14.4878C18.717 11.7786 19.5437 9.73678 21.1971 8.36229C22.8704 6.98779 25.1114 6.30054 27.9201 6.30054C33.7369 6.30054 36.6452 9.28858 36.6452 15.2646ZM27.9201 9.22882C26.5855 9.22882 25.4799 9.54754 24.6034 10.185C23.7469 10.8224 23.209 11.7886 22.9899 13.0834H32.4918C32.3922 11.8882 31.944 10.9519 31.1472 10.2746C30.3504 9.57742 29.2747 9.22882 27.9201 9.22882ZM39.0305 0.324474H43.2436V22.3164H39.0305V0.324474ZM63.6087 15.2646V15.7427H49.9235C50.3219 18.412 52.045 19.7467 55.0928 19.7467C57.0649 19.7467 58.4593 19.1092 59.2761 17.8344L63.3697 18.0435C62.8717 19.5176 61.9155 20.663 60.5012 21.4798C59.0868 22.2766 57.284 22.675 55.0928 22.675C52.1845 22.675 49.8837 21.9977 48.1905 20.6431C46.5172 19.2686 45.6805 17.2168 45.6805 14.4878C45.6805 11.7786 46.5072 9.73678 48.1606 8.36229C49.8339 6.98779 52.0749 6.30054 54.8836 6.30054C60.7004 6.30054 63.6087 9.28858 63.6087 15.2646ZM54.8836 9.22882C53.549 9.22882 52.4434 9.54754 51.5669 10.185C50.7104 10.8224 50.1725 11.7886 49.9534 13.0834H59.4553C59.3557 11.8882 58.9075 10.9519 58.1107 10.2746C57.3139 9.57742 56.2382 9.22882 54.8836 9.22882ZM76.1533 6.30054C78.4441 6.30054 80.3067 7.03759 81.7409 8.51169C83.1752 9.96586 83.8923 11.9579 83.8923 14.4878C83.8923 17.0176 83.1752 19.0196 81.7409 20.4937C80.3067 21.9479 78.4541 22.675 76.1832 22.675C73.5139 22.675 71.5219 21.7088 70.2071 19.7766V28.2925H65.994V6.65911H69.9083V9.58738C71.1832 7.39616 73.2649 6.30054 76.1533 6.30054ZM71.3127 18.0734C72.1892 18.9698 73.3744 19.418 74.8685 19.418C76.3625 19.418 77.5477 18.9698 78.4242 18.0734C79.3007 17.177 79.739 15.9818 79.739 14.4878C79.739 12.9937 79.3007 11.7985 78.4242 10.9021C77.5477 10.0057 76.3625 9.5575 74.8685 9.5575C73.3744 9.5575 72.1892 10.0057 71.3127 10.9021C70.4561 11.7985 70.0278 12.9937 70.0278 14.4878C70.0278 15.9818 70.4561 17.177 71.3127 18.0734ZM88.08 20.4937C86.4266 19.0395 85.5999 17.0375 85.5999 14.4878C85.5999 11.938 86.4266 9.93598 88.08 8.48181C89.7334 7.02763 91.9645 6.30054 94.7732 6.30054C97.582 6.30054 99.8031 7.02763 101.437 8.48181C103.09 9.93598 103.917 11.938 103.917 14.4878C103.917 17.0375 103.09 19.0395 101.437 20.4937C99.8031 21.9479 97.582 22.675 94.7732 22.675C91.9645 22.675 89.7334 21.9479 88.08 20.4937ZM91.1278 10.932C90.2314 11.8483 89.7832 13.0336 89.7832 14.4878C89.7832 15.9419 90.2314 17.1272 91.1278 18.0435C92.0242 18.9598 93.2393 19.418 94.7732 19.418C96.3071 19.418 97.5222 18.9598 98.4186 18.0435C99.315 17.1272 99.7632 15.9419 99.7632 14.4878C99.7632 13.0336 99.315 11.8483 98.4186 10.932C97.5222 10.0157 96.3071 9.5575 94.7732 9.5575C93.2393 9.5575 92.0242 10.0157 91.1278 10.932ZM115.732 6.33042C116.37 6.33042 117.057 6.40014 117.794 6.53959V10.2746C116.957 10.1153 116.081 10.0356 115.164 10.0356C113.611 10.0356 112.465 10.4838 111.728 11.3802C110.991 12.2567 110.623 13.671 110.623 15.6232V22.3164H106.409L106.439 6.65911H110.354V10.0057C111.429 7.55552 113.222 6.33042 115.732 6.33042ZM131.196 9.82642H126.803V16.669C126.803 17.6053 126.953 18.2527 127.252 18.6112C127.57 18.9698 128.178 19.1491 129.074 19.1491C129.532 19.1491 130.24 19.0893 131.196 18.9698V22.3762C130.2 22.5355 129.204 22.6152 128.208 22.6152C126.236 22.6152 124.801 22.2168 123.905 21.42C123.028 20.6033 122.59 19.2288 122.59 17.2965V9.82642H118.765V6.71887H121.574C122.032 6.71887 122.351 6.63919 122.53 6.47982C122.73 6.30054 122.829 6.0117 122.829 5.6133V2.98383H126.803V6.65911H131.196V9.82642Z" fill="#0057FF"/>
</svg>
