<svg width="173" height="72" viewBox="0 0 173 72" fill="none" xmlns="http://www.w3.org/2000/svg">
<path d="M26.5714 1.56638V6.30848H16.6561V29H10.8559V6.30848H0.940581V1.56638H26.5714ZM48.0636 19.751V20.378H30.1142C30.6368 23.8791 32.8968 25.6296 36.8942 25.6296C39.4808 25.6296 41.3097 24.7935 42.381 23.1214L47.7501 23.3957C47.0969 25.3291 45.8428 26.8314 43.9878 27.9027C42.1328 28.9477 39.7682 29.4703 36.8942 29.4703C33.0797 29.4703 30.062 28.582 27.8411 26.8053C25.6465 25.0025 24.5491 22.3114 24.5491 18.732C24.5491 15.1787 25.6334 12.5006 27.802 10.6979C29.9966 8.89508 32.936 7.99369 36.6199 7.99369C44.2491 7.99369 48.0636 11.9128 48.0636 19.751ZM36.6199 11.8344C34.8694 11.8344 33.4193 12.2524 32.2697 13.0885C31.1462 13.9246 30.4408 15.1917 30.1534 16.89H42.6161C42.4855 15.3224 41.8976 14.0944 40.8525 13.2061C39.8074 12.2916 38.3966 11.8344 36.6199 11.8344ZM51.1922 0.155507H56.7181V29H51.1922V0.155507ZM83.4288 19.751V20.378H65.4794C66.0019 23.8791 68.2619 25.6296 72.2594 25.6296C74.846 25.6296 76.6749 24.7935 77.7461 23.1214L83.1153 23.3957C82.4621 25.3291 81.208 26.8314 79.353 27.9027C77.4979 28.9477 75.1334 29.4703 72.2594 29.4703C68.4448 29.4703 65.4271 28.582 63.2063 26.8053C61.0116 25.0025 59.9143 22.3114 59.9143 18.732C59.9143 15.1787 60.9986 12.5006 63.1671 10.6979C65.3618 8.89508 68.3011 7.99369 71.9851 7.99369C79.6142 7.99369 83.4288 11.9128 83.4288 19.751ZM71.9851 11.8344C70.2346 11.8344 68.7845 12.2524 67.6349 13.0885C66.5114 13.9246 65.806 15.1917 65.5186 16.89H77.9813C77.8506 15.3224 77.2628 14.0944 76.2177 13.2061C75.1726 12.2916 73.7617 11.8344 71.9851 11.8344ZM99.8823 7.99369C102.887 7.99369 105.33 8.96039 107.211 10.8938C109.092 12.8011 110.033 15.4138 110.033 18.732C110.033 22.0501 109.092 24.6759 107.211 26.6094C105.33 28.5166 102.9 29.4703 99.9214 29.4703C96.4204 29.4703 93.8077 28.2031 92.0833 25.6688V36.8382H86.5573V8.46398H91.6914V12.3047C93.3635 9.43068 96.0938 7.99369 99.8823 7.99369ZM93.5333 23.4349C94.6829 24.6106 96.2375 25.1985 98.197 25.1985C100.157 25.1985 101.711 24.6106 102.861 23.4349C104.01 22.2592 104.585 20.6915 104.585 18.732C104.585 16.7724 104.01 15.2048 102.861 14.0291C101.711 12.8534 100.157 12.2655 98.197 12.2655C96.2375 12.2655 94.6829 12.8534 93.5333 14.0291C92.4099 15.2048 91.8481 16.7724 91.8481 18.732C91.8481 20.6915 92.4099 22.2592 93.5333 23.4349ZM115.525 26.6094C113.357 24.7021 112.272 22.0763 112.272 18.732C112.272 15.3877 113.357 12.7619 115.525 10.8546C117.694 8.94733 120.62 7.99369 124.304 7.99369C127.988 7.99369 130.901 8.94733 133.044 10.8546C135.212 12.7619 136.296 15.3877 136.296 18.732C136.296 22.0763 135.212 24.7021 133.044 26.6094C130.901 28.5166 127.988 29.4703 124.304 29.4703C120.62 29.4703 117.694 28.5166 115.525 26.6094ZM119.523 14.0683C118.347 15.2701 117.759 16.8247 117.759 18.732C117.759 20.6393 118.347 22.1938 119.523 23.3957C120.698 24.5976 122.292 25.1985 124.304 25.1985C126.316 25.1985 127.91 24.5976 129.085 23.3957C130.261 22.1938 130.849 20.6393 130.849 18.732C130.849 16.8247 130.261 15.2701 129.085 14.0683C127.91 12.8664 126.316 12.2655 124.304 12.2655C122.292 12.2655 120.698 12.8664 119.523 14.0683ZM151.794 8.03288C152.63 8.03288 153.531 8.12432 154.498 8.30721V13.2061C153.4 12.9971 152.251 12.8925 151.049 12.8925C149.011 12.8925 147.509 13.4804 146.542 14.6561C145.575 15.8057 145.092 17.6608 145.092 20.2212V29H139.566L139.605 8.46398H144.739V12.8534C146.15 9.6397 148.502 8.03288 151.794 8.03288ZM172.076 12.6182H166.314V21.5929C166.314 22.8209 166.51 23.67 166.902 24.1403C167.32 24.6106 168.117 24.8458 169.293 24.8458C169.894 24.8458 170.821 24.7674 172.076 24.6106V29.0784C170.769 29.2874 169.463 29.3919 168.156 29.3919C165.57 29.3919 163.689 28.8694 162.513 27.8243C161.363 26.7531 160.789 24.9503 160.789 22.4159V12.6182H155.772V8.54236H159.456C160.057 8.54236 160.475 8.43785 160.71 8.22883C160.971 7.99369 161.102 7.61484 161.102 7.0923V3.6435H166.314V8.46398H172.076V12.6182ZM6.62326 61.8685C6.7539 63.4362 7.44627 64.6903 8.70038 65.6308C9.95448 66.5714 11.8487 67.0417 14.3831 67.0417C15.5849 67.0417 16.6692 66.9503 17.6359 66.7674C18.6026 66.5584 19.4256 66.2056 20.1049 65.7092C20.8104 65.1867 21.1631 64.5335 21.1631 63.7497C21.1631 62.9397 20.8104 62.2866 20.1049 61.7901C19.3995 61.2676 18.2499 60.7842 16.6561 60.3401L9.20986 58.3022C4.63759 57.0742 2.35145 54.6313 2.35145 50.9735C2.35145 48.3346 3.40961 46.362 5.52591 45.0556C7.66835 43.7493 10.3595 43.0961 13.5992 43.0961C17.0742 43.0961 19.922 43.8538 22.1428 45.3692C24.3898 46.8584 25.6439 48.9747 25.9052 51.7181L20.4576 51.9924C20.3009 50.6861 19.6346 49.6148 18.4589 48.7788C17.3093 47.9427 15.6502 47.5247 13.4817 47.5247C11.8095 47.5247 10.4901 47.799 9.52339 48.3477C8.5828 48.8702 8.11251 49.6148 8.11251 50.5815C8.11251 52.0185 9.445 53.1028 12.11 53.8344L19.2819 55.7547C21.8424 56.4341 23.7497 57.3616 25.0038 58.5373C26.284 59.6869 26.9241 61.2676 26.9241 63.2794C26.9241 66.0228 25.8007 68.0737 23.5537 69.4324C21.3068 70.791 18.2368 71.4703 14.3439 71.4703C10.1896 71.4703 7.00211 70.6734 4.78129 69.0796C2.5866 67.4598 1.38474 65.1083 1.17573 62.0253L6.62326 61.8685ZM52.5032 61.751V62.378H34.5538C35.0764 65.8791 37.3364 67.6296 41.3338 67.6296C43.9204 67.6296 45.7493 66.7935 46.8206 65.1214L52.1897 65.3957C51.5365 67.3291 50.2824 68.8314 48.4274 69.9027C46.5723 70.9477 44.2078 71.4703 41.3338 71.4703C37.5193 71.4703 34.5016 70.582 32.2807 68.8053C30.086 67.0025 28.9887 64.3114 28.9887 60.732C28.9887 57.1787 30.073 54.5006 32.2415 52.6979C34.4362 50.8951 37.3756 49.9937 41.0595 49.9937C48.6887 49.9937 52.5032 53.9128 52.5032 61.751ZM41.0595 53.8344C39.309 53.8344 37.8589 54.2524 36.7093 55.0885C35.5858 55.9246 34.8804 57.1917 34.593 58.89H47.0557C46.9251 57.3224 46.3372 56.0944 45.2921 55.2061C44.247 54.2916 42.8361 53.8344 41.0595 53.8344ZM67.8593 50.0329C68.6954 50.0329 69.5968 50.1243 70.5635 50.3072V55.2061C69.4661 54.9971 68.3165 54.8925 67.1147 54.8925C65.0768 54.8925 63.5744 55.4804 62.6077 56.6561C61.641 57.8057 61.1577 59.6608 61.1577 62.2212V71H55.6318L55.671 50.464H60.805V54.8534C62.2158 51.6397 64.5673 50.0329 67.8593 50.0329ZM90.2183 50.464H96.1362L88.0236 71H79.7152L71.7202 50.464H77.7164L83.9478 67.9431L90.2183 50.464ZM98.3024 47.6422V42.469H104.22V47.6422H98.3024ZM98.4983 71V50.464H104.024V71H98.4983ZM122.387 56.6953C122.178 55.7809 121.564 55.0754 120.545 54.579C119.553 54.0826 118.272 53.8344 116.705 53.8344C114.144 53.8344 112.864 54.5006 112.864 55.8331C112.864 56.8521 113.857 57.5967 115.842 58.067L121.603 59.3211C125.914 60.2878 128.07 62.2735 128.07 65.2781C128.07 67.3683 127.103 68.9229 125.17 69.9418C123.263 70.9608 120.663 71.4703 117.371 71.4703C110.656 71.4703 107.064 69.2364 106.593 64.7686L111.688 64.5727C112.054 66.6106 114.04 67.6296 117.645 67.6296C120.963 67.6296 122.622 66.9372 122.622 65.5525C122.622 64.5858 121.46 63.815 119.134 63.2402L113.217 61.9469C109.324 61.0063 107.377 59.0337 107.377 56.0291C107.377 54.6182 107.821 53.4555 108.71 52.5411C109.598 51.6005 110.721 50.9473 112.08 50.5815C113.439 50.1896 115.019 49.9937 116.822 49.9937C119.748 49.9937 122.178 50.5293 124.112 51.6005C126.071 52.6456 127.195 54.2655 127.482 56.4602L122.387 56.6953ZM153.412 61.751V62.378H135.463C135.985 65.8791 138.245 67.6296 142.243 67.6296C144.829 67.6296 146.658 66.7935 147.729 65.1214L153.099 65.3957C152.445 67.3291 151.191 68.8314 149.336 69.9027C147.481 70.9477 145.117 71.4703 142.243 71.4703C138.428 71.4703 135.41 70.582 133.19 68.8053C130.995 67.0025 129.898 64.3114 129.898 60.732C129.898 57.1787 130.982 54.5006 133.15 52.6979C135.345 50.8951 138.284 49.9937 141.968 49.9937C149.598 49.9937 153.412 53.9128 153.412 61.751ZM141.968 53.8344C140.218 53.8344 138.768 54.2524 137.618 55.0885C136.495 55.9246 135.789 57.1917 135.502 58.89H147.965C147.834 57.3224 147.246 56.0944 146.201 55.2061C145.156 54.2916 143.745 53.8344 141.968 53.8344Z" fill="#2872F4"/>
</svg>
