<svg width="128" height="70" viewBox="0 0 128 70" fill="none" xmlns="http://www.w3.org/2000/svg">
<rect width="128" height="69.6471" fill="black"/>
<path d="M64.5009 38.8343H66.3786V45.8261H62.9692V41.8237H50.6904V45.8261H47.2809V38.8343H48.8127C50.0315 36.9073 50.7645 32.139 51.0115 24.5296H64.5009V38.8343ZM53.408 35.1037C53.0951 36.6355 52.7162 37.879 52.2715 38.8343H60.8445V27.519H54.2974C54.0998 30.5167 53.8033 33.0449 53.408 35.1037ZM69.1449 40.3167C67.7778 39.1143 67.0943 37.459 67.0943 35.3508C67.0943 33.2426 67.7778 31.5873 69.1449 30.3849C70.5119 29.1826 72.3566 28.5814 74.679 28.5814C77.0014 28.5814 78.8378 29.1826 80.1884 30.3849C81.5555 31.5873 82.239 33.2426 82.239 35.3508C82.239 37.459 81.5555 39.1143 80.1884 40.3167C78.8378 41.519 77.0014 42.1202 74.679 42.1202C72.3566 42.1202 70.5119 41.519 69.1449 40.3167ZM71.6649 32.4108C70.9237 33.1684 70.5531 34.1484 70.5531 35.3508C70.5531 36.5531 70.9237 37.5331 71.6649 38.2908C72.4061 39.0484 73.4108 39.4273 74.679 39.4273C75.9472 39.4273 76.9519 39.0484 77.6931 38.2908C78.4343 37.5331 78.8049 36.5531 78.8049 35.3508C78.8049 34.1484 78.4343 33.1684 77.6931 32.4108C76.9519 31.6531 75.9472 31.2743 74.679 31.2743C73.4108 31.2743 72.4061 31.6531 71.6649 32.4108Z" fill="white"/>
</svg>
